<svg width="44" height="45" viewBox="0 0 44 45" fill="none" xmlns="http://www.w3.org/2000/svg">
<path d="M22 44.9165C21.3168 44.9165 20.6791 44.7514 20.087 44.4626L14.029 41.2027C13.118 40.7488 13.5735 40.5837 13.8468 40.5012C15.0766 40.1298 15.3043 40.0473 16.5797 39.387C16.7164 39.3045 16.8986 39.3458 17.0352 39.4283L21.6812 41.9455C21.8634 42.028 22.0911 42.028 22.2277 41.9455L40.4017 32.4133C40.5839 32.3308 40.6749 32.1657 40.6749 31.9594V12.9364C40.6749 12.7301 40.5839 12.5651 40.4017 12.4825L22.2277 2.99168C22.0455 2.90915 21.8178 2.90915 21.6812 2.99168L3.50725 12.4825C3.32505 12.5651 3.23395 12.7714 3.23395 12.9364V31.9594C3.23395 32.1245 3.32505 32.3308 3.50725 32.4133L8.47205 35.013C11.1594 36.2509 12.8447 34.8067 12.8447 33.3624V14.587C12.8447 14.3394 13.0725 14.0919 13.3913 14.0919H15.7143C15.9876 14.0919 16.2609 14.2982 16.2609 14.587V33.3624C16.2609 36.6223 14.3023 38.5205 10.8861 38.5205C9.83851 38.5205 9.01863 38.5205 6.69565 37.4889L1.91304 35.013C0.728779 34.394 0 33.2386 0 32.0007V12.9777C0 11.7398 0.728779 10.5844 1.91304 9.9654L20.087 0.433278C21.2257 -0.144426 22.7743 -0.144426 23.913 0.433278L42.087 9.9654C43.2712 10.5844 44 11.7398 44 12.9777V32.0007C44 33.2386 43.2712 34.394 42.087 35.013L23.913 44.5451C23.3209 44.7927 22.6377 44.9165 22 44.9165ZM27.6025 31.8356C19.6315 31.8356 17.9917 28.5345 17.9917 25.7285C17.9917 25.4809 18.2195 25.2333 18.5383 25.2333H20.9068C21.1801 25.2333 21.4079 25.3984 21.4079 25.6459C21.7723 27.833 22.8199 28.9058 27.648 28.9058C31.4741 28.9058 33.1139 28.1218 33.1139 26.2649C33.1139 25.192 32.6584 24.408 26.6915 23.8716C21.7267 23.4177 18.6294 22.4273 18.6294 18.8373C18.6294 15.4949 21.7267 13.5142 26.9193 13.5142C32.7495 13.5142 35.619 15.3298 35.9834 19.2912C35.9834 19.415 35.9379 19.5388 35.8468 19.6626C35.7557 19.7451 35.619 19.8276 35.4824 19.8276H33.1139C32.8861 19.8276 32.6584 19.6626 32.6128 19.4563C32.0663 17.1867 30.6542 16.4439 26.9193 16.4439C22.7288 16.4439 22.2277 17.7644 22.2277 18.7548C22.2277 19.9514 22.8199 20.3228 28.4679 20.983C34.0704 21.6433 36.7122 22.5924 36.7122 26.1411C36.6667 29.7724 33.3872 31.8356 27.6025 31.8356Z" fill="#539E43"/>
</svg>
