<svg width="43" height="37" viewBox="0 0 43 37" fill="none" xmlns="http://www.w3.org/2000/svg">
<path d="M42.3262 18.5042C42.3262 15.7519 38.8149 13.1435 33.4314 11.526C34.6737 6.13985 34.1215 1.85466 31.6886 0.482719C31.1278 0.160906 30.4721 0.00846863 29.7561 0.00846863V1.897C30.1529 1.897 30.4721 1.97322 30.7396 2.11719C31.9129 2.77775 32.4219 5.29297 32.0251 8.52804C31.9302 9.3241 31.7749 10.1625 31.5851 11.0179C29.8941 10.6114 28.0478 10.298 26.1066 10.0948C24.9419 8.52804 23.7341 7.10529 22.5176 5.86038C25.3302 3.29435 27.9702 1.88853 29.7647 1.88853V0C27.3921 0 24.2863 1.65988 21.1459 4.53925C18.0055 1.67681 14.8996 0.0338752 12.5271 0.0338752V1.92241C14.3129 1.92241 16.9616 3.31975 19.7741 5.86885C18.5663 7.11376 17.3584 8.52804 16.211 10.0948C14.2612 10.298 12.4149 10.6114 10.7239 11.0263C10.5255 10.1794 10.3788 9.35798 10.2753 8.57038C9.8698 5.33532 10.3702 2.8201 11.5349 2.15106C11.7937 1.99863 12.1302 1.93088 12.5271 1.93088V0.0423438C11.8023 0.0423438 11.1467 0.194781 10.5772 0.516594C8.15294 1.88853 7.60941 6.16525 8.86039 11.5344C3.49412 13.1604 0 15.7604 0 18.5042C0 21.2566 3.51137 23.865 8.8949 25.4825C7.65254 30.8686 8.2047 35.1538 10.6376 36.5257C11.1984 36.8476 11.8541 37 12.5788 37C14.9514 37 18.0572 35.3401 21.1976 32.4607C24.338 35.3232 27.4439 36.9661 29.8164 36.9661C30.5412 36.9661 31.1968 36.8137 31.7663 36.4919C34.1906 35.1199 34.7341 30.8432 33.4831 25.474C38.8321 23.8565 42.3262 21.2481 42.3262 18.5042ZM31.0933 12.8556C30.7741 13.948 30.3772 15.0744 29.9286 16.2007C29.5749 15.5232 29.2039 14.8457 28.7984 14.1682C28.4015 13.4907 27.9788 12.8302 27.5561 12.1865C28.7812 12.3644 29.9631 12.5846 31.0933 12.8556ZM27.1419 21.8748C26.469 23.0181 25.7788 24.1021 25.0627 25.1099C23.7772 25.22 22.4745 25.2792 21.1631 25.2792C19.8604 25.2792 18.5576 25.22 17.2808 25.1183C16.5647 24.1106 15.8659 23.035 15.1929 21.9002C14.5372 20.7908 13.942 19.6645 13.3984 18.5296C13.9333 17.3948 14.5372 16.26 15.1843 15.1506C15.8572 14.0073 16.5474 12.9233 17.2635 11.9155C18.549 11.8054 19.8518 11.7462 21.1631 11.7462C22.4659 11.7462 23.7686 11.8054 25.0455 11.9071C25.7616 12.9149 26.4604 13.9904 27.1333 15.1252C27.789 16.2346 28.3843 17.361 28.9278 18.4958C28.3843 19.6306 27.789 20.7654 27.1419 21.8748ZM29.9286 20.7739C30.3945 21.9087 30.7914 23.0435 31.1192 24.1444C29.989 24.4154 28.7984 24.6441 27.5647 24.8219C27.9874 24.1698 28.4102 23.5008 28.807 22.8148C29.2039 22.1373 29.5749 21.4514 29.9286 20.7739ZM21.1804 29.81C20.378 28.997 19.5757 28.0909 18.7819 27.1C19.5584 27.1339 20.3521 27.1593 21.1545 27.1593C21.9655 27.1593 22.7678 27.1424 23.5529 27.1C22.7765 28.0909 21.9741 28.997 21.1804 29.81ZM14.7616 24.8219C13.5365 24.6441 12.3545 24.4239 11.2243 24.1529C11.5435 23.0604 11.9404 21.9341 12.389 20.8077C12.7427 21.4852 13.1137 22.1627 13.5192 22.8402C13.9247 23.5177 14.3388 24.1783 14.7616 24.8219ZM21.1372 7.19844C21.9396 8.01144 22.7419 8.9176 23.5357 9.90845C22.7592 9.87457 21.9655 9.84916 21.1631 9.84916C20.3521 9.84916 19.5498 9.8661 18.7647 9.90845C19.5412 8.9176 20.3435 8.01144 21.1372 7.19844ZM14.7529 12.1865C14.3302 12.8386 13.9074 13.5077 13.5106 14.1936C13.1137 14.8711 12.7427 15.5486 12.389 16.2261C11.9231 15.0913 11.5263 13.9565 11.1984 12.8556C12.3286 12.593 13.5192 12.3644 14.7529 12.1865ZM6.94509 22.7894C3.89098 21.5106 1.91529 19.8338 1.91529 18.5042C1.91529 17.1746 3.89098 15.4894 6.94509 14.219C7.68706 13.9057 8.49803 13.6262 9.3349 13.3637C9.82666 15.0236 10.4737 16.7512 11.2761 18.5212C10.4823 20.2827 9.84392 22.0018 9.36078 23.6532C8.50666 23.3907 7.69568 23.1028 6.94509 22.7894ZM11.5867 34.8913C10.4133 34.2307 9.90431 31.7155 10.3012 28.4804C10.3961 27.6844 10.5514 26.846 10.7412 25.9906C12.4321 26.3971 14.2784 26.7105 16.2196 26.9137C17.3843 28.4804 18.5921 29.9032 19.8086 31.1481C16.9961 33.7141 14.3561 35.1199 12.5616 35.1199C12.1733 35.1115 11.8455 35.0352 11.5867 34.8913ZM32.051 28.4381C32.4564 31.6731 31.9561 34.1884 30.7913 34.8574C30.5325 35.0098 30.1961 35.0776 29.7992 35.0776C28.0133 35.0776 25.3647 33.6802 22.5521 31.1312C23.76 29.8862 24.9678 28.472 26.1153 26.9052C28.0651 26.702 29.9114 26.3886 31.6023 25.9737C31.8008 26.829 31.9561 27.6505 32.051 28.4381ZM35.3725 22.7894C34.6306 23.1028 33.8196 23.3822 32.9827 23.6448C32.491 21.9849 31.8439 20.2573 31.0415 18.4873C31.8353 16.7258 32.4737 15.0066 32.9568 13.3552C33.811 13.6178 34.6219 13.9057 35.3811 14.219C38.4353 15.4978 40.4109 17.1746 40.4109 18.5042C40.4023 19.8338 38.4266 21.5191 35.3725 22.7894Z" fill="#61DAFB"/>
<path d="M21.1545 22.3744C23.332 22.3744 25.0972 20.6417 25.0972 18.5042C25.0972 16.3667 23.332 14.634 21.1545 14.634C18.9769 14.634 17.2117 16.3667 17.2117 18.5042C17.2117 20.6417 18.9769 22.3744 21.1545 22.3744Z" fill="#61DAFB"/>
</svg>
