<svg width="44" height="45" viewBox="0 0 44 45" fill="none" xmlns="http://www.w3.org/2000/svg">
<path d="M41.1952 6.01468C36.2853 0.166994 26.5871 -1.5663 19.5759 2.15148L7.26307 8.68293C6.43475 9.11625 5.662 9.62008 4.95894 10.1863C4.255 10.7526 3.62427 11.3784 3.07647 12.0533C2.52866 12.7283 2.06642 13.4488 1.69681 14.203C1.32809 14.9577 1.05434 15.7421 0.879953 16.5437C0.734401 17.2158 0.655009 17.8973 0.644423 18.5804C0.632956 19.2641 0.690294 19.9472 0.814675 20.6221C0.939056 21.2978 1.13048 21.964 1.3863 22.6132C1.64212 23.2625 1.96233 23.8926 2.34341 24.4978C2.08126 24.8295 1.83925 25.172 1.6183 25.5238C1.39688 25.8756 1.19752 26.237 1.02021 26.6057C0.842903 26.9744 0.68853 27.3504 0.557092 27.7323C0.425654 28.1142 0.318034 28.5013 0.233349 28.892C-0.118532 30.5351 -0.0720427 32.2202 0.37008 33.8481C0.590613 34.6596 0.907299 35.4514 1.31661 36.2108C1.72592 36.9702 2.22432 37.6944 2.80653 38.3716C7.71649 44.2192 17.4138 45.9525 24.425 42.2348L36.7378 35.7305C37.5661 35.2964 38.3371 34.7919 39.0402 34.2249C39.7431 33.6583 40.3737 33.0326 40.9218 32.3579C41.4696 31.6837 41.9318 30.9632 42.3014 30.2089C42.671 29.4553 42.9454 28.671 43.1209 27.8697C43.2665 27.1977 43.345 26.5168 43.3556 25.8338C43.3662 25.1507 43.3088 24.4677 43.1836 23.7927C43.0592 23.1178 42.8678 22.4524 42.6111 21.8031C42.3544 21.1546 42.0341 20.5244 41.6531 19.9193C41.9151 19.588 42.1576 19.245 42.3791 18.8932C42.5996 18.5414 42.7998 18.1801 42.9771 17.8114C43.1544 17.4427 43.3097 17.0667 43.442 16.6847C43.5735 16.3036 43.6828 15.9165 43.7684 15.5258C43.9431 14.7061 44.0189 13.874 43.996 13.0419C43.9731 12.2098 43.8505 11.382 43.6299 10.5697C43.4094 9.75816 43.0927 8.96643 42.6834 8.20701C42.2746 7.44746 41.7761 6.72365 41.1952 6.04626" fill="#FF3E00"/>
<path d="M18.3727 38.937C17.409 39.1455 16.4128 39.2302 15.4184 39.1882C14.4242 39.1456 13.4433 38.9782 12.51 38.6895C11.5767 38.4014 10.7016 37.9964 9.91477 37.4887C9.12864 36.9807 8.44004 36.3759 7.87263 35.6952C7.52243 35.2876 7.2225 34.8528 6.97727 34.396C6.73132 33.9394 6.54072 33.4636 6.40829 32.9755C6.27685 32.4871 6.20275 31.9892 6.18952 31.489C6.17629 30.9888 6.22304 30.4887 6.3289 29.9959C6.34566 29.9158 6.36507 29.8358 6.38624 29.7564C6.40653 29.6764 6.42946 29.5971 6.45416 29.5185C6.47798 29.4392 6.50444 29.3606 6.53267 29.282C6.56002 29.2041 6.59001 29.1263 6.62089 29.0492L6.85289 28.4594L7.48538 28.8523C7.84793 29.0727 8.22196 29.2805 8.60569 29.4744C8.98941 29.669 9.38285 29.8497 9.7851 30.0157C10.1865 30.1824 10.5975 30.3352 11.0148 30.4725C11.432 30.6106 11.8563 30.7333 12.2868 30.8412L12.7588 30.9551L12.7164 31.348C12.6937 31.6154 12.7271 31.8841 12.8152 32.1419C12.8585 32.2712 12.9158 32.396 12.9855 32.5165C13.0552 32.6369 13.1372 32.7523 13.2307 32.861C13.402 33.066 13.61 33.248 13.8473 33.4008C14.0837 33.5535 14.3475 33.6755 14.6289 33.7621C14.9103 33.8488 15.2049 33.8987 15.5049 33.9112C15.8039 33.9244 16.1038 33.8987 16.394 33.8356C16.4611 33.8209 16.5264 33.804 16.5916 33.7849C16.6569 33.7658 16.7213 33.7452 16.7839 33.7217C16.8475 33.699 16.9092 33.674 16.971 33.6468C17.0318 33.6204 17.0909 33.5917 17.1492 33.5609L29.4434 27.0287C29.5942 26.95 29.7346 26.8584 29.8625 26.7555C29.9904 26.6519 30.1042 26.5381 30.2038 26.4154C30.3035 26.2928 30.3864 26.1613 30.4535 26.024C30.5196 25.8866 30.5691 25.7441 30.6008 25.5987C30.6317 25.4496 30.6449 25.2991 30.6405 25.1478C30.6361 24.9972 30.6132 24.8474 30.5726 24.6998C30.5329 24.5529 30.4747 24.4096 30.3997 24.2716C30.3256 24.1342 30.2338 24.0035 30.128 23.8808C29.9569 23.6759 29.7495 23.4945 29.5123 23.3418C29.275 23.189 29.0112 23.0671 28.7307 22.9804C28.4495 22.8937 28.1542 22.8432 27.8547 22.8306C27.5548 22.8181 27.2549 22.8438 26.9647 22.9062C26.8985 22.9209 26.8323 22.9378 26.7671 22.9569C26.7018 22.976 26.6383 22.9966 26.5747 23.0193C26.5112 23.0428 26.4495 23.0678 26.3886 23.095C26.3278 23.1214 26.2678 23.1508 26.2095 23.1817L21.4884 25.6773C21.2961 25.7787 21.0985 25.8741 20.8973 25.9637C20.6953 26.0526 20.4907 26.1356 20.2816 26.212C20.0725 26.2884 19.8599 26.3581 19.6447 26.4206C19.4295 26.4837 19.2116 26.5395 18.991 26.5888C18.0286 26.7959 17.0345 26.8796 16.0421 26.837C15.0497 26.7944 14.0714 26.6262 13.1399 26.339C12.2083 26.0511 11.335 25.6465 10.5499 25.1397C9.76481 24.6329 9.07675 24.0299 8.50953 23.3506C8.16109 22.943 7.86205 22.5074 7.6177 22.0506C7.37246 21.5938 7.1828 21.1178 7.05137 20.6302C6.91993 20.1418 6.84759 19.6438 6.83524 19.1437C6.82201 18.6442 6.86877 18.1441 6.9755 17.652C7.18406 16.6831 7.63291 15.7611 8.29341 14.9448C8.95437 14.1285 9.81277 13.4361 10.8137 12.9119L23.1459 6.3804C23.3373 6.27904 23.5332 6.18356 23.7334 6.09396C23.9336 6.00509 24.1383 5.9221 24.3456 5.84572C24.5534 5.7693 24.7646 5.69972 24.979 5.63713C25.1924 5.57397 25.4095 5.51742 25.6291 5.46821C26.5924 5.26036 27.5883 5.17517 28.5816 5.21703C29.5758 5.25963 30.5558 5.42708 31.4891 5.71572C32.4224 6.00362 33.2966 6.40904 34.0835 6.91654C34.8694 7.42488 35.5577 8.02991 36.1247 8.7108C36.4741 9.11769 36.7749 9.55248 37.021 10.0093C37.2671 10.4661 37.4576 10.9413 37.5908 11.4297C37.7232 11.9181 37.7973 12.4161 37.8105 12.9163C37.8246 13.4164 37.7787 13.9166 37.6729 14.4094C37.6543 14.4902 37.6349 14.571 37.6129 14.651C37.5917 14.7311 37.5688 14.8111 37.5441 14.8905C37.5203 14.9705 37.4938 15.0498 37.4665 15.1284C37.4391 15.2077 37.4109 15.2863 37.38 15.3642L37.1445 15.9539L36.5164 15.561C36.153 15.3385 35.778 15.1299 35.3934 14.9338C35.0088 14.7384 34.6136 14.5563 34.2105 14.3881C33.4034 14.0529 32.5639 13.7748 31.7008 13.5567L31.228 13.4429L31.2712 13.0499C31.2845 12.9155 31.2836 12.7804 31.2686 12.6467C31.2545 12.513 31.2254 12.3801 31.183 12.2501C31.1398 12.1208 31.0842 11.9938 31.0145 11.8726C30.9457 11.7507 30.8637 11.6346 30.7702 11.5245C30.5981 11.3232 30.3901 11.1449 30.1536 10.9957C29.9173 10.8458 29.655 10.7269 29.3755 10.6431C28.814 10.4735 28.2037 10.4507 27.6263 10.5778C27.5592 10.5925 27.4931 10.6094 27.4287 10.6277C27.3634 10.6468 27.299 10.6681 27.2355 10.6909C27.1728 10.7136 27.1102 10.7394 27.0493 10.7658C26.9885 10.793 26.9285 10.8216 26.8703 10.8525L14.553 17.3729C14.4031 17.4515 14.2628 17.5433 14.1358 17.6461C14.0088 17.7489 13.8941 17.8628 13.7944 17.9847C13.6956 18.1073 13.6119 18.238 13.5448 18.3747C13.4777 18.512 13.4283 18.6538 13.3966 18.7992C13.3657 18.9483 13.3524 19.0996 13.3569 19.2509C13.3674 19.5537 13.4493 19.8519 13.5977 20.1285C13.6725 20.2663 13.7632 20.3976 13.8685 20.5207C14.0387 20.7234 14.2452 20.9041 14.4807 21.0554C14.7157 21.2074 14.9772 21.3288 15.2561 21.4153C15.8169 21.5889 16.4278 21.6168 17.008 21.4954C17.0742 21.4799 17.1403 21.463 17.2056 21.4439C17.27 21.4248 17.3344 21.4035 17.3979 21.3808C17.4611 21.3579 17.5232 21.3329 17.584 21.3059C17.6449 21.2794 17.7049 21.2508 17.7631 21.2199L22.4843 18.7287C22.6775 18.6259 22.8742 18.5289 23.0762 18.4393C23.2773 18.349 23.4829 18.266 23.6928 18.1889C23.9021 18.1124 24.1148 18.0429 24.3306 17.9803C24.5467 17.9171 24.7655 17.8613 24.9869 17.8128C25.9502 17.6042 26.9452 17.519 27.9394 17.5602C28.9336 17.602 29.9136 17.7695 30.8469 18.0574C31.7793 18.3453 32.6544 18.75 33.4404 19.2582C34.2273 19.7657 34.9153 20.3702 35.4825 21.051C35.8319 21.4586 36.1318 21.8934 36.3779 22.3503C36.624 22.8068 36.8149 23.2826 36.9478 23.7707C37.0801 24.2584 37.1542 24.7563 37.1683 25.2565C37.1824 25.7574 37.1357 26.2575 37.0307 26.7496C36.9267 27.2327 36.7626 27.7056 36.5411 28.1605C36.3198 28.6155 36.0419 29.05 35.7119 29.4568C35.3829 29.8637 35.0035 30.2412 34.5801 30.5827C34.1567 30.9242 33.6918 31.2283 33.1925 31.4897L20.8744 38.0212C20.6812 38.1233 20.4836 38.2195 20.2825 38.3091C20.0805 38.3987 19.8749 38.4817 19.665 38.5581C19.4559 38.6352 19.2433 38.705 19.0272 38.7681C18.812 38.8313 18.5932 38.8878 18.3727 38.937Z" fill="white"/>
</svg>
