<svg width="44" height="27" viewBox="0 0 44 27" fill="none" xmlns="http://www.w3.org/2000/svg">
<g clip-path="url(#clip0_134_101)">
<path d="M22 0.228394C16.1334 0.228394 12.4666 3.16906 11 9.05023C13.2 6.10956 15.7666 5.00683 18.7 5.74204C20.3735 6.16142 21.5698 7.37873 22.8939 8.72596C25.051 10.9209 27.5473 13.4611 33 13.4611C38.8666 13.4611 42.5334 10.5205 44 4.63931C41.8 7.57998 39.2334 8.68271 36.3 7.9475C34.6265 7.52812 33.4302 6.31081 32.1061 4.96358C29.949 2.76863 27.4527 0.228394 22 0.228394ZM11 13.4611C5.13339 13.4611 1.46661 16.4018 0 22.283C2.2 19.3423 4.76661 18.2396 7.7 18.9748C9.37355 19.3942 10.5698 20.6115 11.8939 21.9587C14.051 24.1537 16.5473 26.6939 22 26.6939C27.8666 26.6939 31.5334 23.7532 33 17.8721C30.8 20.8127 28.2334 21.9155 25.3 21.1803C23.6265 20.7609 22.4302 19.5436 21.1061 18.1963C18.949 16.0014 16.4527 13.4611 11 13.4611Z" fill="url(#paint0_linear_134_101)"/>
</g>
<defs>
<linearGradient id="paint0_linear_134_101" x1="-1.22232" y1="8.69736" x2="36.8258" y2="30.5809" gradientUnits="userSpaceOnUse">
<stop stop-color="#2298BD"/>
<stop offset="1" stop-color="#0ED7B5"/>
</linearGradient>
<clipPath id="clip0_134_101">
<rect width="44" height="26.5361" fill="white" transform="translate(0 0.193115)"/>
</clipPath>
</defs>
</svg>
