<svg width="16" height="16" viewBox="0 0 16 16" fill="none" xmlns="http://www.w3.org/2000/svg">
<path d="M9.14862 12.4364L6.74196 14.8425C5.19797 16.3858 2.69999 16.3858 1.15666 14.8425C0.409998 14.0971 0 13.1051 0 12.0504C0 10.9957 0.409998 10.0036 1.15599 9.25762L4.39998 6.01419C5.96997 4.44414 8.47596 4.50614 9.98461 6.01419C10.2866 6.3162 10.5246 6.66288 10.7106 7.03222L9.64862 8.09359C9.52862 7.68491 9.31528 7.3009 9.00595 6.99222C8.04062 6.02686 6.38597 5.98552 5.37997 6.99155L5.37931 6.99289L2.13466 10.2363C1.13466 11.2357 1.13466 12.8637 2.13466 13.8631C3.14598 14.8745 4.77331 14.8551 5.76264 13.8631L7.37929 12.247C8.04129 12.4364 8.57329 12.4704 9.14862 12.4364V12.4364ZM9.25595 1.15737L6.8733 3.54144C7.43796 3.50811 7.97663 3.54144 8.64195 3.73012L10.2373 2.1374C11.2359 1.13604 12.8639 1.13737 13.8639 2.13673C14.8753 3.14877 14.8546 4.77615 13.8639 5.76485L10.6433 8.98561L10.6413 8.98695C9.68262 9.94498 8.05062 10.0216 7.0153 8.98561C6.69996 8.6696 6.49197 8.29093 6.37797 7.89025L6.32197 7.93558L5.31064 8.94561C5.4973 9.31629 5.73397 9.6623 6.03597 9.96431C7.53263 11.461 10.0386 11.547 11.6213 9.96431L14.8426 6.74354C16.3852 5.1995 16.3866 2.70209 14.8419 1.1587C13.2973 -0.388678 10.7973 -0.383345 9.25595 1.15737V1.15737Z" fill="#737373"/>
</svg>
