<svg width="112" height="34" viewBox="0 0 112 34" fill="none" xmlns="http://www.w3.org/2000/svg">
<circle cx="17" cy="17" r="17" fill="#2B2C2B"/>
<path fill-rule="evenodd" clip-rule="evenodd" d="M11.4201 24.5555H9.44452V9.44443H9.46554L17.4309 20.3423L16.5692 20.1802L24.5136 9.44443H24.5556V24.5555H22.538V13.9008L22.6641 14.8933L16.9265 22.7122H16.8845L11.0628 14.8933L11.4201 13.9818V24.5555Z" fill="#AFAFAF" stroke="#AFAFAF" stroke-width="0.25" stroke-linecap="round"/>
<path d="M43.768 22.456H49.688L49.416 20.648H44.04L43.768 22.456ZM46.696 17.432L48.376 21.32L48.344 21.896L49.784 25H52.376L46.696 13.144L41.016 25H43.592L45.064 21.8L45.016 21.288L46.696 17.432ZM61.559 13.8V20.744L53.591 13.24V25H55.799V18.056L63.767 25.56V13.8H61.559ZM67.1764 21.24L65.5444 22.392C65.7897 22.9147 66.131 23.4 66.5684 23.848C67.0057 24.296 67.5177 24.6533 68.1044 24.92C68.7017 25.176 69.3417 25.304 70.0244 25.304C70.5364 25.304 71.0217 25.224 71.4804 25.064C71.9497 24.9147 72.371 24.696 72.7444 24.408C73.1177 24.1093 73.411 23.7467 73.6244 23.32C73.8377 22.8933 73.9444 22.408 73.9444 21.864C73.9444 21.384 73.8644 20.9627 73.7044 20.6C73.555 20.2267 73.3417 19.9067 73.0644 19.64C72.7977 19.3627 72.4937 19.128 72.1524 18.936C71.8217 18.744 71.475 18.584 71.1124 18.456C70.547 18.264 70.0777 18.0773 69.7044 17.896C69.331 17.704 69.0537 17.5067 68.8724 17.304C68.691 17.0907 68.6004 16.8453 68.6004 16.568C68.6004 16.2907 68.7124 16.0507 68.9364 15.848C69.1604 15.6347 69.4964 15.528 69.9444 15.528C70.2857 15.528 70.5897 15.5973 70.8564 15.736C71.123 15.864 71.3577 16.04 71.5604 16.264C71.7737 16.4773 71.955 16.7173 72.1044 16.984L73.8964 15.992C73.7044 15.5973 73.4324 15.2187 73.0804 14.856C72.739 14.4827 72.307 14.1787 71.7844 13.944C71.2724 13.6987 70.659 13.576 69.9444 13.576C69.251 13.576 68.6217 13.704 68.0564 13.96C67.5017 14.2053 67.059 14.5627 66.7284 15.032C66.4084 15.4907 66.2484 16.04 66.2484 16.68C66.2484 17.2133 66.3497 17.672 66.5524 18.056C66.755 18.4293 67.011 18.7493 67.3204 19.016C67.6297 19.272 67.955 19.4853 68.2964 19.656C68.6484 19.816 68.9577 19.944 69.2244 20.04C69.7257 20.232 70.147 20.4133 70.4884 20.584C70.8404 20.744 71.1017 20.9307 71.2724 21.144C71.4537 21.3573 71.5444 21.64 71.5444 21.992C71.5444 22.3973 71.4004 22.7173 71.1124 22.952C70.8244 23.1867 70.451 23.304 69.9924 23.304C69.5977 23.304 69.2297 23.2187 68.8884 23.048C68.547 22.8773 68.2324 22.6373 67.9444 22.328C67.667 22.0187 67.411 21.656 67.1764 21.24ZM77.5858 19.4C77.5858 18.6853 77.7351 18.0507 78.0338 17.496C78.3324 16.9413 78.7431 16.504 79.2658 16.184C79.7884 15.864 80.3964 15.704 81.0898 15.704C81.7938 15.704 82.4071 15.864 82.9298 16.184C83.4524 16.504 83.8578 16.9413 84.1458 17.496C84.4338 18.0507 84.5778 18.6853 84.5778 19.4C84.5778 20.1147 84.4284 20.7493 84.1298 21.304C83.8418 21.8587 83.4364 22.296 82.9138 22.616C82.3911 22.936 81.7831 23.096 81.0898 23.096C80.3964 23.096 79.7884 22.936 79.2658 22.616C78.7431 22.296 78.3324 21.8587 78.0338 21.304C77.7351 20.7493 77.5858 20.1147 77.5858 19.4ZM75.1698 19.4C75.1698 20.2427 75.3138 21.0267 75.6018 21.752C75.8898 22.4667 76.3004 23.0907 76.8338 23.624C77.3671 24.1573 77.9911 24.5733 78.7057 24.872C79.4311 25.16 80.2258 25.304 81.0898 25.304C81.9538 25.304 82.7431 25.16 83.4578 24.872C84.1831 24.5733 84.8071 24.1573 85.3298 23.624C85.8631 23.0907 86.2738 22.4667 86.5618 21.752C86.8604 21.0267 87.0098 20.2427 87.0098 19.4C87.0098 18.5467 86.8604 17.768 86.5618 17.064C86.2738 16.3493 85.8578 15.7307 85.3138 15.208C84.7804 14.6853 84.1564 14.2853 83.4418 14.008C82.7271 13.72 81.9431 13.576 81.0898 13.576C80.2471 13.576 79.4631 13.72 78.7378 14.008C78.0231 14.2853 77.3991 14.6853 76.8658 15.208C76.3324 15.7307 75.9164 16.3493 75.6178 17.064C75.3191 17.768 75.1698 18.5467 75.1698 19.4ZM90.5545 19.4C90.5545 18.6853 90.7038 18.0507 91.0025 17.496C91.3012 16.9413 91.7118 16.504 92.2345 16.184C92.7572 15.864 93.3652 15.704 94.0585 15.704C94.7625 15.704 95.3758 15.864 95.8985 16.184C96.4212 16.504 96.8265 16.9413 97.1145 17.496C97.4025 18.0507 97.5465 18.6853 97.5465 19.4C97.5465 20.1147 97.3972 20.7493 97.0985 21.304C96.8105 21.8587 96.4052 22.296 95.8825 22.616C95.3598 22.936 94.7518 23.096 94.0585 23.096C93.3652 23.096 92.7572 22.936 92.2345 22.616C91.7118 22.296 91.3012 21.8587 91.0025 21.304C90.7038 20.7493 90.5545 20.1147 90.5545 19.4ZM88.1385 19.4C88.1385 20.2427 88.2825 21.0267 88.5705 21.752C88.8585 22.4667 89.2692 23.0907 89.8025 23.624C90.3358 24.1573 90.9598 24.5733 91.6745 24.872C92.3998 25.16 93.1945 25.304 94.0585 25.304C94.9225 25.304 95.7118 25.16 96.4265 24.872C97.1518 24.5733 97.7758 24.1573 98.2985 23.624C98.8318 23.0907 99.2425 22.4667 99.5305 21.752C99.8292 21.0267 99.9785 20.2427 99.9785 19.4C99.9785 18.5467 99.8292 17.768 99.5305 17.064C99.2425 16.3493 98.8265 15.7307 98.2825 15.208C97.7492 14.6853 97.1252 14.2853 96.4105 14.008C95.6958 13.72 94.9118 13.576 94.0585 13.576C93.2158 13.576 92.4318 13.72 91.7065 14.008C90.9918 14.2853 90.3678 14.6853 89.8345 15.208C89.3012 15.7307 88.8852 16.3493 88.5865 17.064C88.2878 17.768 88.1385 18.5467 88.1385 19.4ZM104.291 19.784L107.651 25H110.355L106.707 19.784H104.291ZM101.747 13.8V25H104.035V13.8H101.747ZM103.139 15.752H105.363C105.769 15.752 106.115 15.8213 106.403 15.96C106.702 16.088 106.931 16.28 107.091 16.536C107.251 16.7813 107.331 17.08 107.331 17.432C107.331 17.784 107.251 18.088 107.091 18.344C106.931 18.5893 106.702 18.7813 106.403 18.92C106.115 19.048 105.769 19.112 105.363 19.112H103.139V20.936H105.507C106.393 20.936 107.145 20.7867 107.763 20.488C108.382 20.1893 108.857 19.7733 109.187 19.24C109.518 18.696 109.683 18.072 109.683 17.368C109.683 16.6533 109.518 16.0293 109.187 15.496C108.857 14.9627 108.382 14.5467 107.763 14.248C107.145 13.9493 106.393 13.8 105.507 13.8H103.139V15.752Z" fill="#EEEBEB"/>
</svg>
